<?xml version="1.0" standalone="no"?>
<!DOCTYPE svg PUBLIC "-//W3C//DTD SVG 20010904//EN"
 "http://www.w3.org/TR/2001/REC-SVG-20010904/DTD/svg10.dtd">
<svg version="1.0" xmlns="http://www.w3.org/2000/svg"
 width="178.000000pt" height="66.000000pt" viewBox="0 0 178.000000 66.000000"
 preserveAspectRatio="xMidYMid meet">

<g transform="translate(0.000000,66.000000) scale(0.100000,-0.100000)"
fill="#000000" stroke="none">
<path d="M0 330 l0 -330 890 0 890 0 0 330 0 330 -890 0 -890 0 0 -330z m515
246 c37 -16 50 -34 60 -89 l7 -37 -50 0 c-45 0 -51 3 -54 23 -4 26 -31 30 -36
4 -2 -10 20 -41 57 -80 33 -34 65 -75 70 -90 25 -66 4 -164 -40 -188 -29 -15
-99 -15 -128 0 -31 17 -51 64 -51 121 l0 50 45 0 45 0 0 -39 c0 -45 21 -69 39
-47 20 24 1 68 -54 126 -65 68 -75 87 -75 143 0 91 77 139 165 103z m-211
-193 c10 -109 20 -215 23 -235 l6 -38 -46 0 c-44 0 -45 1 -54 37 -7 29 -14 38
-31 39 -18 1 -23 -5 -28 -37 -6 -38 -7 -39 -50 -39 -53 0 -50 -23 -24 240 11
107 20 203 20 213 0 15 11 17 83 17 l83 0 18 -197z m488 186 c66 -36 62 -249
-6 -264 -11 -2 -34 -6 -51 -7 l-30 -3 0 -92 1 -93 -48 0 -48 0 0 235 0 235 81
0 c44 0 89 -5 101 -11z m193 -24 c3 -19 7 -51 10 -70 4 -21 2 -35 -5 -35 -5 0
-10 9 -10 20 0 15 -7 20 -25 20 -14 0 -29 -8 -35 -20 -6 -11 -15 -20 -21 -20
-6 0 7 32 27 70 21 39 42 70 46 70 4 0 10 -16 13 -35z m235 25 c0 -5 -5 -10
-11 -10 -5 0 -7 5 -4 10 3 6 8 10 11 10 2 0 4 -4 4 -10z m144 -32 c7 -5 5 -8
-5 -8 -24 0 -32 -61 -11 -77 14 -12 13 -13 -7 -13 -21 0 -23 4 -19 45 2 25 0
45 -4 45 -5 0 0 8 10 18 10 10 19 13 21 7 2 -5 9 -13 15 -17z m279 2 c6 0 4
-6 -5 -12 -25 -21 -31 -65 -11 -77 16 -9 16 -10 -4 -11 -26 0 -32 15 -22 58 4
17 3 32 -2 32 -5 0 -1 8 9 18 12 13 18 14 20 5 2 -7 8 -13 15 -13z m-575 -8
c-33 -4 -36 -18 -7 -40 28 -23 16 -52 -22 -52 -16 0 -29 4 -29 9 0 5 8 7 19 4
28 -7 37 16 12 33 -12 8 -21 21 -21 29 0 20 29 34 54 26 19 -5 18 -6 -6 -9z
m222 0 c-45 -12 -45 -13 -21 -31 33 -25 25 -55 -17 -59 -18 -2 -32 1 -32 8 0
6 10 8 25 4 31 -8 33 11 4 42 -18 19 -19 23 -5 37 10 9 24 13 38 9 15 -4 18
-7 8 -10z m175 6 c4 4 4 -9 0 -28 -12 -65 -14 -67 -48 -66 -28 1 -32 5 -35 33
-4 41 29 78 57 64 10 -6 22 -7 26 -3z m103 -1 c16 -19 -7 -112 -23 -96 -2 3 0
21 5 39 6 22 6 38 0 44 -14 14 -37 -10 -44 -49 -4 -19 -12 -35 -17 -35 -7 0
-8 13 -4 33 12 58 16 66 38 70 12 2 25 5 28 6 4 0 11 -5 17 -12z m-420 -4
c-34 -5 -34 -10 -7 -39 28 -30 19 -54 -21 -54 -16 0 -30 4 -30 9 0 5 8 7 19 4
30 -8 37 17 11 37 -32 24 -20 50 22 49 30 -2 31 -2 6 -6z m58 -43 c-12 -61
-31 -67 -21 -7 8 46 12 57 24 57 4 0 3 -22 -3 -50z m-248 -148 c-34 -4 -34 -9
-7 -38 28 -30 19 -54 -21 -54 -16 0 -30 4 -30 9 0 5 8 7 19 4 28 -7 36 16 12
38 -12 11 -21 24 -21 29 0 15 32 28 54 21 19 -5 18 -6 -6 -9z m228 -30 l7 -35
19 36 c10 20 23 37 28 37 6 0 -1 -22 -15 -50 -33 -65 -55 -66 -55 -4 0 41 -2
45 -22 42 -17 -2 -27 -15 -38 -45 -20 -58 -29 -54 -17 8 7 35 14 49 23 45 7
-3 16 -1 19 3 12 21 45 -2 51 -37z m184 38 c12 -8 11 -10 -6 -10 -28 0 -46
-23 -42 -52 2 -15 9 -22 21 -22 9 1 17 -3 17 -8 0 -5 -12 -8 -27 -6 -23 2 -29
8 -31 35 -2 22 3 38 17 52 24 24 30 25 51 11z m-300 -21 c0 -13 -10 -23 -30
-31 -34 -11 -35 -33 -1 -32 11 0 21 -3 21 -8 0 -4 -13 -8 -30 -8 -38 0 -51 37
-26 75 21 32 66 35 66 4z m205 -33 c-4 -25 -12 -46 -17 -46 -9 0 -2 74 9 93
11 18 14 -4 8 -47z m190 34 c0 -8 -15 -22 -33 -31 -27 -14 -30 -18 -17 -29 8
-6 19 -9 25 -5 5 3 10 1 10 -5 0 -6 -12 -10 -27 -8 -22 2 -29 9 -31 30 -5 42
15 70 46 66 16 -2 27 -9 27 -18z m-298 -138 c-5 -25 -3 -28 21 -27 22 0 28 -5
30 -28 5 -38 -23 -68 -60 -65 -18 1 -28 8 -28 18 0 16 17 96 25 118 8 23 17
12 12 -16z m102 -44 c-12 -63 -29 -101 -29 -62 0 19 17 98 26 123 12 35 14 -3
3 -61z m-265 40 c15 -25 -2 -51 -42 -63 -24 -7 -32 -15 -32 -32 0 -13 -4 -23
-10 -23 -5 0 -10 6 -10 13 1 14 18 95 25 115 7 19 56 11 69 -10z m326 12 c0
-5 -4 -10 -10 -10 -5 0 -10 5 -10 10 0 6 5 10 10 10 6 0 10 -4 10 -10z m69
-38 c-16 -2 -31 -12 -37 -27 -15 -32 -5 -58 19 -52 11 3 19 1 19 -5 0 -5 -12
-8 -27 -6 -25 3 -28 7 -28 43 0 32 5 42 24 51 13 7 31 9 40 6 12 -5 9 -8 -10
-10z m-355 -38 c-5 -37 -4 -46 7 -42 14 5 33 35 44 72 10 33 17 9 10 -36 -6
-43 -9 -45 -41 -46 -41 -2 -47 8 -39 58 10 57 28 51 19 -6z m271 14 c-11 -56
-16 -68 -27 -68 -5 0 -8 6 -5 14 3 8 9 31 13 50 3 20 11 36 16 36 6 0 7 -14 3
-32z"/>
<path d="M197 415 c-14 -139 -13 -149 6 -153 14 -3 17 4 16 45 -1 26 -4 77 -8
113 l-7 65 -7 -70z"/>
<path d="M709 488 c-4 -9 -6 -94 -2 -100 7 -14 31 4 37 28 8 32 -3 74 -20 74
-8 0 -14 -1 -15 -2z"/>
<path d="M952 525 c-10 -21 -9 -25 3 -25 9 0 15 10 15 25 0 14 -2 25 -3 25 -2
0 -9 -11 -15 -25z"/>
<path d="M1413 518 c-17 -22 -22 -44 -12 -59 7 -12 10 -12 23 1 19 18 25 61
10 67 -6 2 -15 -2 -21 -9z"/>
<path d="M1020 325 c-10 -13 -9 -15 9 -15 12 0 21 6 21 15 0 8 -4 15 -9 15 -5
0 -14 -7 -21 -15z"/>
<path d="M1415 329 c-4 -6 -4 -13 -1 -16 8 -8 36 5 36 17 0 13 -27 13 -35 -1z"/>
<path d="M1166 144 c-30 -30 -12 -80 19 -54 16 14 21 70 6 70 -5 0 -17 -7 -25
-16z"/>
<path d="M950 181 c0 -5 -3 -17 -6 -26 -5 -13 -2 -16 17 -13 32 4 41 48 10 48
-12 0 -21 -4 -21 -9z"/>
</g>
</svg>
